<?xml version="1.0" encoding="UTF-8"?>
<svg width="42px" height="48px" viewBox="0 0 42 48" version="1.1" xmlns="http://www.w3.org/2000/svg" xmlns:xlink="http://www.w3.org/1999/xlink">
    <!-- Generator: Sketch 51 (57462) - http://www.bohemiancoding.com/sketch -->
    <title>询问</title>
    <desc>Created with Sketch.</desc>
    <defs></defs>
    <g id="我的" stroke="none" stroke-width="1" fill="none" fill-rule="evenodd">
        <g id="申请成为分销商" transform="translate(-166.000000, -240.000000)" fill="#E23535" fill-rule="nonzero">
            <g id="询问" transform="translate(166.000000, 240.000000)">
                <path d="M34.4806553,0 L7.5188015,0 C3.37298831,0 0,3.57204201 0,7.96241072 L0,15.2886628 C0,16.2340418 0.742081317,17 1.65786902,17 C2.57365672,17 3.31579234,16.2339857 3.31579234,15.2886628 L3.31579234,7.96241072 C3.31579234,5.45943577 5.20141331,3.42273036 7.5188015,3.42273036 L34.4806553,3.42273036 C36.7985867,3.42273036 38.6842077,5.45943577 38.6842077,7.96241072 L38.6842077,15.2379204 C38.6842077,16.1832994 39.426289,16.9492576 40.342131,16.9492576 C41.257973,16.9492576 42,16.1832433 42,15.2379204 L42,7.96241072 C42.0000001,3.57198596 38.6270117,0 34.4806553,0 Z" id="Shape"></path>
                <path d="M40.342131,19 C39.426289,19 38.6842077,19.7447359 38.6842077,20.6637995 L38.6842077,33.2833169 C38.6842077,35.716764 36.7985867,37.6968936 34.4806553,37.6968936 L24.1959686,37.6968936 C23.7341639,37.6968936 23.3172796,37.8869206 23.0167426,38.1924575 L16.7564701,42.9775845 L16.7564701,39.393182 C16.7564701,39.3876218 16.7548949,39.3824977 16.7548406,39.3769376 C16.7548949,39.3713774 16.7564701,39.3662533 16.7564701,39.3606931 C16.7564701,38.441575 16.0143888,37.6968392 15.0986011,37.6968392 L7.51880149,37.6968391 C5.20141325,37.6968391 3.31579234,35.7167095 3.31579234,33.2832623 L3.31579234,20.7959899 C3.31579234,19.8768717 2.57371102,19.1321904 1.65786902,19.1321904 C0.742027015,19.1321904 0,19.8769262 0,20.7959899 L0,33.2833714 C0,37.551784 3.37298831,41.0246016 7.51880149,41.0246016 L13.4407322,41.0246016 L13.4407322,46.3362006 C13.4407322,46.9688063 13.7979763,47.5461374 14.3624947,47.8272531 C14.5956241,47.9431445 14.8476558,48 15.0986012,48 C15.4548133,48 15.8087984,47.8846537 16.1029259,47.6598483 L24.7837892,41.0246016 L34.4806553,41.0246016 C38.6270116,41.0246016 41.9999999,37.551784 41.9999999,33.2833713 L42,20.663854 C42,19.7447359 41.257973,19 40.342131,19 Z" id="Shape"></path>
                <path d="M14.4999754,12 C13.6713572,12 13,12.7521222 13,13.6803563 L13,15.3196437 C13,16.2478778 13.6714063,17 14.4999754,17 C15.3285445,17 16,16.2478778 16,15.3196437 L16,13.6803563 C15.9999509,12.7521223 15.3285937,12 14.4999754,12 Z" id="Shape"></path>
                <path d="M27.4999754,12 C26.6713572,12 26,12.7521222 26,13.6803563 L26,15.3196437 C26,16.2478778 26.6714063,17 27.4999754,17 C28.3285445,17 29,16.2478778 29,15.3196437 L29,13.6803563 C29,12.7521223 28.3285937,12 27.4999754,12 Z" id="Shape"></path>
                <path d="M25.2243645,19.2765391 C24.4392043,18.7882881 23.38196,18.9967949 22.8572665,19.7315354 C22.8500266,19.7415756 22.1106066,20.7570697 20.9830964,20.7570697 C19.8867905,20.7570697 19.2042792,19.8165317 19.158539,19.7510845 C18.6550038,19.0031696 17.6072442,18.7741044 16.809288,19.2449312 C16.0057756,19.7172985 15.7587224,20.7170152 16.2583851,21.4775733 C16.8734366,22.4144458 18.5602682,24 20.9830963,24 C23.3942509,24 25.1022409,22.4260797 25.731267,21.4965913 C26.2369911,20.7491544 26.0072237,19.764737 25.2243645,19.2765391 Z" id="Shape"></path>
            </g>
        </g>
    </g>
</svg>