<?xml version="1.0" encoding="UTF-8"?>
<svg width="14px" height="16px" viewBox="0 0 14 16" version="1.1" xmlns="http://www.w3.org/2000/svg" xmlns:xlink="http://www.w3.org/1999/xlink">
    <!-- Generator: Sketch 51 (57462) - http://www.bohemiancoding.com/sketch -->
    <title>购物车</title>
    <desc>Created with Sketch.</desc>
    <defs></defs>
    <g id="Page-1" stroke="none" stroke-width="1" fill="none" fill-rule="evenodd">
        <g id="首页-多个产品展示" transform="translate(-74.000000, -1045.000000)" fill="#4B4B4B" fill-rule="nonzero">
            <g id="购物车" transform="translate(74.000000, 1045.000000)">
                <path d="M13.0178571,11.4111022 L3.56071429,11.4111022 C3.10357143,11.4111022 2.73214286,11.0403862 2.70357143,10.6078842 L2.16071429,1.55623492 C2.13214286,1.0619469 1.875,0.660337892 1.475,0.444086887 L0.617857143,0.0424778761 C0.389285714,-0.0502011263 0.160714286,0.0424778761 0.0464285714,0.289621883 C-0.0678571429,0.536765889 0.0464285714,0.783909895 0.275,0.907481899 L1.10357143,1.30909091 C1.21785714,1.37087691 1.30357143,1.49444891 1.30357143,1.64891392 L1.81785714,10.7005632 C1.875,11.6273532 2.64642857,12.3687852 3.53214286,12.3687852 L13.0178571,12.3687852 C13.2464286,12.3687852 13.4464286,12.1525342 13.4464286,11.9053902 C13.4464286,11.6582462 13.2464286,11.4111022 13.0178571,11.4111022 Z" id="Shape"></path>
                <path d="M13.675,2.79195495 C13.4178571,2.48302494 13.0464286,2.29766693 12.6464286,2.29766693 L3.90357143,2.29766693 C3.675,2.29766693 3.475,2.51391794 3.475,2.76106195 C3.475,3.00820595 3.675,3.22445696 3.90357143,3.22445696 L12.6464286,3.22445696 C12.7892857,3.22445696 12.9321429,3.28624296 13.0178571,3.40981496 C13.1035714,3.53338697 13.1607143,3.68785197 13.1607143,3.84231698 L12.475,7.92019308 L12.475,7.95108608 C12.4464286,8.22912309 12.2464286,8.41448109 11.9892857,8.44537409 L4.475,9.06323411 C4.24642857,9.09412711 4.075,9.31037812 4.075,9.55752212 C4.10357143,9.80466613 4.275,9.99002414 4.50357143,9.99002414 L4.53214286,9.99002414 L12.0178571,9.37216412 C12.675,9.31037812 13.2178571,8.7851971 13.275,8.07465809 L13.9607143,3.96588898 L13.9607143,3.93499598 C14.0464286,3.53338697 13.9321429,3.10088496 13.675,2.79195495 Z" id="Shape"></path>
                <path d="M2.33214286,14.1914722 C2.33214286,14.7886329 2.77985811,15.2727273 3.33214286,15.2727273 C3.88442761,15.2727273 4.33214286,14.7886329 4.33214286,14.1914722 C4.33214286,13.5943116 3.88442761,13.1102172 3.33214286,13.1102172 C2.77985811,13.1102172 2.33214286,13.5943116 2.33214286,14.1914722 Z" id="Shape"></path>
                <path d="M10.3321429,14.1914722 C10.3321429,14.7886329 10.7798581,15.2727273 11.3321429,15.2727273 C11.8844276,15.2727273 12.3321429,14.7886329 12.3321429,14.1914722 C12.3321429,13.5943116 11.8844276,13.1102172 11.3321429,13.1102172 C10.7798581,13.1102172 10.3321429,13.5943116 10.3321429,14.1914722 Z" id="Shape"></path>
            </g>
        </g>
    </g>
</svg>