<?xml version="1.0" encoding="UTF-8"?>
<svg width="24px" height="24px" viewBox="0 0 24 24" version="1.1" xmlns="http://www.w3.org/2000/svg" xmlns:xlink="http://www.w3.org/1999/xlink">
    <!-- Generator: Sketch 51 (57462) - http://www.bohemiancoding.com/sketch -->
    <title>Combined Shape</title>
    <desc>Created with Sketch.</desc>
    <defs></defs>
    <g id="首页" stroke="none" stroke-width="1" fill="none" fill-rule="evenodd">
        <g id="好友分享给好友" transform="translate(-346.000000, -383.000000)" fill="#E8E8E8">
            <path d="M358.001898,393.913329 L353.311384,389.231455 C353.002807,388.922848 352.520803,388.922848 352.231455,389.231455 C351.922848,389.520773 351.922848,390.002777 352.231455,390.311384 L356.913329,395.001898 L352.231455,399.68377 C351.922848,399.992408 351.922848,400.474352 352.231455,400.782989 C352.520802,401.072337 353.002805,401.072337 353.311381,400.782989 L358.001897,396.092475 L362.68377,400.782989 C362.992378,401.072337 363.474352,401.072337 363.782989,400.782989 C364.072337,400.474352 364.072337,399.992408 363.782989,399.68377 L359.092476,395.001897 L363.78299,390.311384 C364.072337,390.002807 364.072337,389.520773 363.78299,389.231455 C363.474353,388.922848 362.99238,388.922848 362.683774,389.231455 L358.001898,393.913329 Z M358,407 C351.372583,407 346,401.627417 346,395 C346,388.372583 351.372583,383 358,383 C364.627417,383 370,388.372583 370,395 C370,401.627417 364.627417,407 358,407 Z" id="Combined-Shape"></path>
        </g>
    </g>
</svg>