<?xml version="1.0" encoding="UTF-8"?>
<svg width="55px" height="55px" viewBox="0 0 55 55" version="1.1" xmlns="http://www.w3.org/2000/svg" xmlns:xlink="http://www.w3.org/1999/xlink">
    <!-- Generator: Sketch 51 (57462) - http://www.bohemiancoding.com/sketch -->
    <title>Group 6</title>
    <desc>Created with Sketch.</desc>
    <defs></defs>
    <g id="首页" stroke="none" stroke-width="1" fill="none" fill-rule="evenodd">
        <g id="好友分享给好友" transform="translate(-160.000000, -502.000000)">
            <g id="Group-6" transform="translate(160.000000, 502.000000)">
                <circle id="Oval-4-Copy" fill="#A9B6C5" cx="27.5" cy="27.5" r="27.5"></circle>
                <g id="链接" transform="translate(16.000000, 15.000000)" fill="#FFFFFF" fill-rule="nonzero">
                    <path d="M14.996699,9.26307484 C14.8127945,9.0795788 14.6167698,8.91416795 14.4147764,8.7607936 L14.414411,8.76112794 C14.2065097,8.56155285 13.9242122,8.4386345 13.6129846,8.4386345 C12.9742067,8.4386345 12.4564177,8.95547507 12.4564177,9.59301508 C12.4564177,9.87511325 12.5579474,10.1335031 12.7263818,10.3340205 L12.7263513,10.3340205 C12.7263818,10.3340509 12.7264427,10.3341117 12.7265036,10.3341421 C12.8074167,10.4304645 12.903678,10.5135043 13.011755,10.5792492 C13.1208065,10.6690063 13.2278481,10.7573957 13.3279464,10.8573048 L13.4232941,10.9525027 C14.6219773,12.1474305 14.2641264,14.2061605 13.0654433,15.402608 L7.95040823,20.5064541 C6.75175556,21.701382 4.80301994,21.701382 3.60430638,20.5064541 L3.50819736,20.410466 C2.30945333,19.2140792 2.30945333,17.2675988 3.50819736,16.0740996 L5.76797787,13.8193508 C6.05791897,13.589654 6.2440465,13.235124 6.2440465,12.8370072 C6.2440465,12.144543 5.68164418,11.5832038 4.98786848,11.5832038 C4.72606576,11.5832038 4.4830524,11.6632041 4.28182031,11.7999522 C4.28118081,11.7986149 4.28051084,11.7973383 4.27984087,11.7959705 L4.25575271,11.818463 C4.1668001,11.882293 4.08637424,11.9571564 4.01691139,12.0415336 L1.66851323,14.2348536 C-0.538979816,16.4396935 -0.538979816,20.0457232 1.66851323,22.2474931 L1.76386095,22.3426302 C3.971354,24.5444305 7.58266023,24.5444305 9.79015327,22.3426302 L14.9036657,17.2372644 C17.1081135,15.0340659 17.2950328,11.5585229 15.0906155,9.35672254 L14.996699,9.26307484 Z" id="Shape"></path>
                    <path d="M21.5209389,2.47236707 L21.4370402,2.38862697 C19.494642,0.44987387 16.3169688,0.44987387 14.3745438,2.38862697 L9.87504416,6.88093152 C7.93261918,8.81968462 7.82564902,11.619348 9.768074,13.5593581 L9.85063288,13.6405039 C9.93884576,13.7285233 10.0304081,13.8115145 10.1238731,13.891109 C10.1915333,13.9665313 10.2710106,14.0310949 10.3593575,14.082152 C10.3600274,14.0826869 10.3607241,14.0832486 10.361394,14.0837835 L10.3616887,14.083516 C10.5025024,14.1643409 10.6656641,14.2108245 10.8397854,14.2108245 C11.3704024,14.2108245 11.8005339,13.7814526 11.8005339,13.2518921 C11.8005339,13.1024116 11.7662349,12.960928 11.7050861,12.8347963 C11.5780724,12.5501442 11.3403103,12.3768602 11.1758625,12.2126965 L11.0932768,12.1316042 C10.0385541,11.0788754 10.4390759,9.5494351 11.4937986,8.49670624 L15.9959511,4.00568548 C17.0480745,2.95290315 18.7634023,2.95290315 19.8181785,4.00568548 L19.9021308,4.0880883 C20.9568802,5.14089736 20.9568802,6.85431979 19.9021308,7.90576485 L17.9202083,9.88527807 C17.6505856,10.0846656 17.4757408,10.4044881 17.4757408,10.7650974 C17.4757408,11.369465 17.9666192,11.8594422 18.5721582,11.8594422 C18.7829098,11.8594422 18.9797006,11.7999602 19.1468013,11.6970971 C19.1480607,11.6992367 19.1492398,11.7012159 19.1504992,11.7033823 L19.1812344,11.6750589 C19.2759319,11.6117791 19.3600449,11.5340834 19.4307599,11.4452617 L21.5195186,9.52153955 C23.4633639,7.58281314 23.4633639,4.41109341 21.5209389,2.47236707 Z" id="Shape"></path>
                </g>
            </g>
        </g>
    </g>
</svg>