<?xml version="1.0" encoding="UTF-8"?>
<svg width="55px" height="55px" viewBox="0 0 55 55" version="1.1" xmlns="http://www.w3.org/2000/svg" xmlns:xlink="http://www.w3.org/1999/xlink">
    <!-- Generator: Sketch 51 (57462) - http://www.bohemiancoding.com/sketch -->
    <title>二维码</title>
    <desc>Created with Sketch.</desc>
    <defs></defs>
    <g id="首页" stroke="none" stroke-width="1" fill="none" fill-rule="evenodd">
        <g id="好友分享给好友" transform="translate(-206.000000, -502.000000)">
            <g id="二维码" transform="translate(206.000000, 502.000000)">
                <circle id="Oval-4-Copy-2" fill="#FACA49" cx="27.5" cy="27.5" r="27.5"></circle>
                <g transform="translate(16.000000, 16.000000)" fill="#FFFFFF" fill-rule="nonzero" id="Shape">
                    <path d="M0.72334886,0.0159064579 C3.79030426,0.0159064579 6.85728246,0.0159064579 9.92426065,0.0159064579 C10.8598979,0.106593346 10.6343885,1.7184775 10.6343885,2.76571585 C10.6343885,4.64673816 10.6343885,5.88650489 10.6343885,7.75162074 C10.6343885,8.83526771 10.842893,10.1634235 10.1094916,10.4712012 C9.63189395,10.6716716 8.35007136,10.5316591 7.73208028,10.5316591 C6.03539148,10.5316591 4.65621209,10.5316591 2.8537552,10.5316591 C1.72604856,10.5316591 0.18625669,10.7950861 0.0132210109,9.83663836 C0.0132210109,6.79473464 0.0132210109,3.75283092 0.0132210109,0.710927202 C0.139299306,0.371001957 0.361115956,0.124753033 0.72334886,0.0159064579 Z M1.98926065,2.07069511 C1.98926065,4.23631585 1.98926065,6.40189198 1.98926065,8.56749041 C4.20202478,8.56749041 6.41472052,8.56749041 8.62746184,8.56749041 C8.62746184,6.37166301 8.62746184,4.17585793 8.62746184,1.98003053 C6.42502379,1.98003053 4.22256293,1.98003053 2.02012488,1.98003053 C1.98415461,1.98511703 1.98659366,2.02781683 1.98926065,2.07069511 Z M13.073551,0.0159064579 C16.1404836,0.0159064579 19.2074846,0.0159064579 22.2744172,0.0159064579 C22.6497572,0.152193346 22.9076353,0.40343953 22.9845451,0.831776125 C22.9845451,3.79309902 22.9845451,6.75446654 22.9845451,9.71576712 C22.9003637,10.0849397 22.7033935,10.4003025 22.3361685,10.5014301 C21.7360258,10.6666967 20.7388196,10.5316368 20.0205312,10.5316368 C18.3281734,10.5316368 16.9405144,10.5316368 15.2965728,10.5316368 C14.5841655,10.5316368 13.5284222,10.6785205 12.9500486,10.5014301 C12.1336283,10.2514333 12.3634232,8.6916411 12.3634232,7.60052055 C12.3634232,6.15118121 12.3634232,4.45936321 12.3634232,2.94700039 C12.3634004,1.68722231 12.0808583,0.191926027 13.073551,0.0159064579 Z M14.3394172,2.07069511 C14.3394172,4.23631585 14.3394172,6.40189198 14.3394172,8.56749041 C16.5521586,8.56749041 18.7648999,8.56749041 20.9776412,8.56749041 C20.9776412,6.37166301 20.9776412,4.17585793 20.9776412,1.98003053 C18.775226,1.98003053 16.5727651,1.98003053 14.3703271,1.98003053 C14.334334,1.98511703 14.336773,2.02781683 14.3394172,2.07069511 Z M5.01504856,3.97440587 C5.93956194,3.80365127 6.66660357,4.41501252 6.68233201,5.24355382 C6.70305253,6.33614677 5.56283152,6.93637573 4.67542815,6.4824728 C3.66019128,5.9631816 3.72700297,4.21231115 5.01504856,3.97440587 Z M17.3652507,3.97440587 C19.5429336,3.57623131 19.5011506,6.95152368 17.3652507,6.60334403 C16.0059485,6.3818137 15.9620684,4.23098395 17.3652507,3.97440587 Z M9.86250942,22.8 C6.82644103,22.8 3.79034985,22.8 0.754235877,22.8 C0.376114965,22.6866023 0.120698712,22.4531143 0.0132438057,22.0747949 C0.0132438057,19.042975 0.0132438057,16.0110881 0.0132438057,12.9792681 C0.103169475,12.7130971 0.310784936,12.4025977 0.630733399,12.3144986 C1.23511596,12.1480497 2.22236075,12.284292 2.94639346,12.284292 C4.61044004,12.284292 6.11788603,12.284292 7.67035183,12.284292 C8.36848959,12.284292 9.38454708,12.1317863 10.0168533,12.3144986 C10.8723211,12.5616845 10.6343885,14.0961558 10.6343885,15.1851569 C10.6343885,16.8592168 10.6343885,18.2872509 10.6343885,19.989755 C10.6343885,21.1651374 10.892996,22.6950798 9.86250942,22.8 Z M1.98926065,14.3390806 C1.98926065,16.5047014 1.98926065,18.6702775 1.98926065,20.8358536 C4.20202478,20.8358536 6.41472052,20.8358536 8.62746184,20.8358536 C8.62746184,18.6400262 8.62746184,16.4442434 8.62746184,14.248416 C6.42502379,14.248416 4.22256293,14.248416 2.02012488,14.248416 C1.98415461,14.2535025 1.98659366,14.29618 1.98926065,14.3390806 Z M22.9845451,13.1001616 C22.9845451,13.946238 22.9845451,14.7923589 22.9845451,15.6384352 C22.9125134,16.4946176 22.9742418,17.4816658 22.9536809,18.3882223 C20.7615461,18.3882223 18.5693885,18.3882223 16.3772081,18.3882223 C16.3772081,17.8946982 16.3772081,17.4011072 16.3772081,16.9075609 C15.7596957,16.8371307 15.008446,16.8974994 14.33944,16.8773542 C14.2674083,18.7911487 14.3291596,20.8358536 14.3085758,22.8 C13.9072042,22.8 13.5058097,22.8 13.1044153,22.8 C12.0690505,22.5969194 12.3634004,21.0764137 12.3634004,19.8688614 C12.3634004,18.184517 12.3634004,16.7986697 12.3634004,15.1851569 C12.3634004,14.4809225 12.2177641,13.4251397 12.3942874,12.8584192 C12.6048662,12.1822497 13.5181645,12.284292 14.4320555,12.284292 C15.9770446,12.284292 17.3535114,12.284292 18.9089633,12.284292 C18.9089633,13.6239147 18.9089633,14.9636043 18.9089633,16.303227 C19.5985074,16.303227 20.2880743,16.303227 20.9776184,16.303227 C20.9981794,14.9736211 20.9364509,13.5634791 21.0085055,12.284292 C22.004002,12.2266227 22.9260763,12.2408114 22.9845451,13.1001616 Z M5.16941526,16.2125847 C6.15659167,16.1056344 6.97262438,17.0341656 6.58967096,18.0558376 C6.05887017,19.4719585 3.52089197,18.9397503 3.99616452,17.1493256 C4.12753122,16.6543961 4.50699703,16.2843311 5.16941526,16.2125847 Z M18.6002527,22.8 C17.8592379,22.8 17.1182002,22.8 16.3772081,22.8 C16.3977919,22.0243984 16.3360634,21.168283 16.4080951,20.443011 C17.1388067,20.443011 17.8695183,20.443011 18.6002527,20.443011 C18.6002527,21.228674 18.6002527,22.014337 18.6002527,22.8 Z M22.9845451,20.443011 C22.9845451,20.9567249 22.9845451,21.4704387 22.9845451,21.9841303 C22.8986997,22.4138501 22.6419841,22.6762509 22.2435074,22.8 C21.7186561,22.8 21.1937592,22.8 20.668885,22.8 C20.6894688,22.0243984 20.6277403,21.168283 20.6997721,20.443011 C21.4613935,20.443011 22.2229465,20.443011 22.9845451,20.443011 Z"></path>
                </g>
            </g>
        </g>
    </g>
</svg>