<?xml version="1.0" encoding="UTF-8"?>
<svg width="18px" height="16px" viewBox="0 0 18 16" version="1.1" xmlns="http://www.w3.org/2000/svg" xmlns:xlink="http://www.w3.org/1999/xlink">
    <!-- Generator: Sketch 51 (57462) - http://www.bohemiancoding.com/sketch -->
    <title>购物车-2</title>
    <desc>Created with Sketch.</desc>
    <defs></defs>
    <g id="详情页" stroke="none" stroke-width="1" fill="none" fill-rule="evenodd">
        <g id="商品详情页-首屏样式" transform="translate(-19.000000, -625.000000)" fill="#7F8388" fill-rule="nonzero">
            <g id="购物车-2" transform="translate(19.000000, 625.000000)">
                <path d="M14.6872183,13.5371071 C13.9278909,13.5371071 13.3101581,14.0872679 13.3101581,14.7634821 C13.3101581,15.4396964 13.9278909,15.9898571 14.6872183,15.9898571 C15.4469065,15.9898571 16.0649399,15.4397143 16.0649399,14.7634821 C16.0649399,14.08725 15.4469265,13.5371071 14.6872183,13.5371071 Z M5.82983519,13.5371071 C5.07076837,13.5371071 4.45321604,14.0872679 4.45321604,14.7634821 C4.45321604,15.4396964 5.07074833,15.9898571 5.82983519,15.9898571 C6.58932294,15.9898571 7.20719599,15.4397143 7.20719599,14.7634821 C7.20719599,14.08725 6.5893029,13.5371071 5.82983519,13.5371071 Z M17.4758352,2.23821429 C17.131069,1.89167857 16.657216,1.70082143 16.1416704,1.70082143 L5.18746771,1.70082143 C4.77699555,1.70082143 4.44305345,1.99814286 4.44305345,2.36360714 C4.44305345,2.72905357 4.77699555,3.026375 5.18746771,3.026375 L16.1416303,3.026375 C16.2296258,3.026375 16.3015056,3.05594643 16.361539,3.11680357 C16.4636659,3.22017857 16.5157817,3.39605357 16.4946548,3.56542857 L15.498902,8.63971429 L15.4982004,8.64376786 C15.468735,8.85833929 15.2478842,9.02792857 14.9954833,9.02978571 L14.9925167,9.02978571 L6.40270824,9.593625 C6.20354566,9.60678571 6.02318486,9.687625 5.89512027,9.82089286 C5.764951,9.95483929 5.70142984,10.1260536 5.71614254,10.3026071 C5.74376392,10.6471786 6.06920713,10.9171607 6.45706904,10.9171607 L6.45853229,10.9171607 L6.50994655,10.9156964 L15.0477194,10.3539643 C15.5117506,10.3518036 15.9652784,10.1939643 16.3254788,9.90926786 C16.6837149,9.62432143 16.9125434,9.24221429 16.969951,8.83317857 L17.9665657,3.75775 L17.9672673,3.75369643 C18.0455813,3.18307143 17.8664432,2.63071429 17.4758151,2.23821429 L17.4758352,2.23821429 Z" id="Shape"></path>
                <path d="M15.943029,11.8461071 L5.66639198,11.8461071 C5.45377951,11.8461071 5.23515367,11.6593214 5.20745212,11.4524107 L4.12997773,4.69228571 L3.51950111,1.554875 C3.39895323,0.688553571 2.54076615,0.0101428571 1.56475724,0.0101428571 L0.758605791,0.0101428571 C0.348374165,0.0101428571 0.0146325167,0.307321429 0.0146325167,0.672589286 C0.0146325167,1.03807143 0.348374165,1.33539286 0.758605791,1.33539286 L1.56473719,1.33539286 C1.78783296,1.33539286 2.0176637,1.53067857 2.0468686,1.74508929 L2.65882851,4.89753571 L3.73153229,11.6224464 C3.84973497,12.4910357 4.69958352,13.171375 5.66637194,13.171375 L5.75591091,13.1710714 L15.9430089,13.1710714 C16.3530401,13.1710714 16.6866214,12.8742143 16.6866214,12.5093036 C16.6866615,12.143625 16.3530802,11.8461071 15.943049,11.8461071 L15.943029,11.8461071 Z" id="Shape"></path>
            </g>
        </g>
    </g>
</svg>