<?xml version="1.0" encoding="UTF-8"?>
<svg width="55px" height="55px" viewBox="0 0 55 55" version="1.1" xmlns="http://www.w3.org/2000/svg" xmlns:xlink="http://www.w3.org/1999/xlink">
    <!-- Generator: Sketch 51 (57462) - http://www.bohemiancoding.com/sketch -->
    <title>图文二维码</title>
    <desc>Created with Sketch.</desc>
    <defs></defs>
    <g id="首页" stroke="none" stroke-width="1" fill="none" fill-rule="evenodd">
        <g id="好友分享给好友" transform="translate(-296.000000, -502.000000)">
            <g id="图文二维码" transform="translate(296.000000, 502.000000)">
                <circle id="Oval-4-Copy-2" fill="#539AE9" cx="27.5" cy="27.5" r="27.5"></circle>
                <g id="Group-10" transform="translate(16.000000, 16.000000)">
                    <g id="图片" fill="#FFFFFF" fill-rule="nonzero">
                        <path d="M7.50623407,20.6393677 L15.3372571,12.8083447 L20.6532476,18.1271111 L20.6532476,20.6338158 L7.50623407,20.6393677 Z M2.0819806,2.06810073 L20.6476956,2.05977281 L20.6532476,15.2095623 L16.0645623,10.6208771 C15.8702442,10.4265589 15.6093026,10.3182959 15.3344811,10.3182959 C15.0596597,10.3182959 14.7987181,10.4265589 14.6043999,10.6208771 L4.58868525,20.6421437 L2.0819806,20.6421437 L2.0819806,2.06810073 Z M20.6560236,0.00555194828 L2.07087671,0.00555194828 C0.938279259,0.00832792242 0.019431819,0.927175362 0.019431819,2.05977281 L0.019431819,20.6421437 C0.019431819,21.7747411 0.938279259,22.6963646 2.07087671,22.6963646 L20.6532476,22.6963646 C21.788621,22.6963646 22.7074685,21.7775171 22.7102444,20.6421437 L22.7102444,2.05977281 C22.7074685,0.924399388 21.788621,0.00555194828 20.6560236,0.00555194828 Z" id="Shape"></path>
                        <path d="M8.26962696,7.22586068 C8.5444484,7.22308471 8.80816594,7.3313477 9.00248413,7.52566589 C9.19680232,7.71998408 9.30506531,7.98370162 9.30228934,8.25852306 C9.30506531,8.5333445 9.19680232,8.79706205 9.00248413,8.99138024 C8.80816594,9.18569843 8.5444484,9.29396142 8.26962696,9.29118544 C7.99480552,9.29396142 7.73108798,9.18569843 7.53676979,8.99138024 C7.3424516,8.79706205 7.23418861,8.5333445 7.23696458,8.25852306 C7.23974055,7.67834447 7.69222434,7.22586068 8.26962696,7.22586068 M8.26962696,11.3509583 C9.97685106,11.3509583 11.3648381,9.96297119 11.3648381,8.25574709 C11.3648381,6.54852299 9.97685106,5.16053592 8.26962696,5.16053592 C6.56240286,5.16053592 5.1744158,6.54852299 5.1744158,8.25574709 C5.1744158,9.96297119 6.56517884,11.3509583 8.26962696,11.3509583" id="Shape"></path>
                    </g>
                    <rect id="Rectangle-13" fill="#539AE9" x="14" y="14" width="10" height="14"></rect>
                    <g id="二维码" transform="translate(15.000000, 15.000000)" fill="#FFFFFF" fill-rule="nonzero">
                        <path d="M7.98876007,0.800117559 C7.98876007,1.41544579 7.98876007,2.03080648 7.98876007,2.64613471 C7.93637337,3.26881281 7.98126678,3.986666 7.96631336,4.64597986 C6.37203352,4.64597986 4.77773709,4.64597986 3.18342409,4.64597986 C3.18342409,4.28705326 3.18342409,3.92807799 3.18342409,3.56913517 C2.73432417,3.51791325 2.18796072,3.56181775 1.70141094,3.5471667 C1.64902424,4.93901726 1.69393423,6.42607536 1.67896423,7.85454545 C1.38705757,7.85454545 1.09513434,7.85454545 0.8032111,7.85454545 C0.0502185783,7.70685045 0.264291197,6.60102814 0.264291197,5.72280833 C0.264291197,4.49783056 0.264291197,3.48994158 0.264291197,2.31647778 C0.264291197,1.80430728 0.158373908,1.03646526 0.286754482,0.624304857 C0.439902694,0.132545241 1.10411965,0.206757801 1.76876764,0.206757801 C2.89239607,0.206757801 3.89346283,0.206757801 5.0247006,0.206757801 C5.0247006,1.18102886 5.0247006,2.15534859 5.0247006,3.12961964 C5.52618722,3.12961964 6.02769042,3.12961964 6.52917704,3.12961964 C6.54413046,2.16263355 6.49923705,1.13707568 6.55164033,0.206757801 C7.27563781,0.16481651 7.94623732,0.175135527 7.98876007,0.800117559 Z M4.8001838,7.85454545 C4.2612639,7.85454545 3.72232742,7.85454545 3.18342409,7.85454545 C3.19839409,7.29047159 3.15350068,6.66784216 3.20588738,6.14037161 C3.73731399,6.14037161 4.26874061,6.14037161 4.8001838,6.14037161 C4.8001838,6.71176289 4.8001838,7.28315417 4.8001838,7.85454545 Z M7.98876007,6.14037161 C7.98876007,6.51398171 7.98876007,6.88759182 7.98876007,7.2611857 C7.92632706,7.57370916 7.73962483,7.7645461 7.44982359,7.85454545 C7.06811352,7.85454545 6.6863703,7.85454545 6.30464366,7.85454545 C6.31961366,7.29047159 6.27472025,6.66784216 6.32710695,6.14037161 C6.88101342,6.14037161 7.43487017,6.14037161 7.98876007,6.14037161 Z" id="Shape"></path>
                    </g>
                </g>
            </g>
        </g>
    </g>
</svg>