<?xml version="1.0" encoding="UTF-8"?>
<svg width="15px" height="15px" viewBox="0 0 15 15" version="1.1" xmlns="http://www.w3.org/2000/svg" xmlns:xlink="http://www.w3.org/1999/xlink">
    <!-- Generator: Sketch 51 (57462) - http://www.bohemiancoding.com/sketch -->
    <title>垃圾桶</title>
    <desc>Created with Sketch.</desc>
    <defs></defs>
    <g id="我的" stroke="none" stroke-width="1" fill="none" fill-rule="evenodd">
        <g id="收货地址管理" transform="translate(-346.000000, -133.000000)" fill="#515151" fill-rule="nonzero">
            <g id="垃圾桶" transform="translate(346.000000, 133.000000)">
                <path d="M0.382612257,2.61546907 L14.625233,2.61546907" id="Shape"></path>
                <polygon id="Shape" points="0.0149573353 2.23831032 14.992888 2.23831032 14.992888 2.99259007 0.0149573353 2.99259007"></polygon>
                <path d="M5.13164765,0.390890639 L9.87619766,0.390890639" id="Shape"></path>
                <polygon id="Shape" points="4.76399272 0.0137507617 10.2438526 0.0137507617 10.2438526 0.768030516 4.76399272 0.768030516"></polygon>
                <path d="M5.76561341,5.0975963 L5.76561341,12.0881291" id="Shape"></path>
                <polygon id="Shape" points="5.39795849 4.72045642 6.13326834 4.72045642 6.13326834 12.4652501 5.39795849 12.4652501"></polygon>
                <path d="M9.29726982,5.0975963 L9.29726982,12.0881291" id="Shape"></path>
                <polygon id="Shape" points="8.9296149 4.72045642 9.66492474 4.72045642 9.66492474 12.4652501 8.9296149 12.4652501"></polygon>
                <path d="M11.80168,14.9981969 L3.2061653,14.9981969 C2.41276597,14.9981969 1.76731099,14.3360713 1.76731099,13.5222223 L1.76731099,3.96061386 L2.50262084,3.96061386 L2.50262084,13.5222223 C2.50262084,13.9201803 2.8182342,14.2439172 3.2061653,14.2439171 L11.80168,14.2439171 C12.1896295,14.2439171 12.5052428,13.9201614 12.5052428,13.5222223 L12.5052428,3.96061386 L13.2405527,3.96061386 L13.2405527,13.5222223 C13.2405527,14.3360713 12.5950793,14.9981969 11.80168,14.9981969 Z" id="Shape"></path>
            </g>
        </g>
    </g>
</svg>