<?xml version="1.0" encoding="UTF-8"?>
<svg width="15px" height="15px" viewBox="0 0 15 15" version="1.1" xmlns="http://www.w3.org/2000/svg" xmlns:xlink="http://www.w3.org/1999/xlink">
    <!-- Generator: Sketch 51 (57462) - http://www.bohemiancoding.com/sketch -->
    <title>编辑</title>
    <desc>Created with Sketch.</desc>
    <defs></defs>
    <g id="我的" stroke="none" stroke-width="1" fill="none" fill-rule="evenodd">
        <g id="收货地址管理" transform="translate(-253.000000, -206.000000)" fill="#4D4D4D" fill-rule="nonzero">
            <g id="编辑" transform="translate(253.000000, 206.000000)">
                <path d="M0.936494673,14.9992175 L11.7011369,14.9992175 C12.2179234,14.9992175 12.636374,14.5807668 12.636374,14.0639803 L12.636374,7.20766688 L11.7011369,8.10105894 L11.7011369,14.061888 L0.936494673,14.0618881 L0.936494673,2.35991644 L7.51244618,2.35991644 L8.45814459,1.44769409 L8.43303755,1.42258705 L0.936494673,1.42258705 C0.419708154,1.42258705 0.00125754014,1.84103766 0.00125754014,2.35782418 L0.00125754014,14.0597958 C0.00125754014,14.5786746 0.419708154,14.9992175 0.936494673,14.9992175 Z" id="Shape"></path>
                <path d="M14.2599625,0.623346365 C13.8373273,0.217449255 13.3707549,0.0124084576 12.8748909,0.0124084576 C12.0965728,0.0124084576 11.5295722,0.514549197 11.3747454,0.669375929 C11.1550589,0.884878005 4.9515284,7.0821317 4.9515284,7.0821317 C4.90340658,7.13234579 4.86783827,7.19302111 4.84900799,7.25997322 C4.68162774,7.88137239 3.83844974,10.638962 3.83008073,10.6661613 C3.78614341,10.8084345 3.82589623,10.961169 3.92841662,11.0636894 C4.00373773,11.1390105 4.10207364,11.1787633 4.20459403,11.1787633 C4.24434683,11.1787633 4.28619189,11.1724865 4.32594471,11.159933 C4.35523626,11.1494718 7.20070048,10.2309726 7.66936517,10.0907917 C7.73004052,10.0719614 7.78653134,10.0384853 7.83256091,9.99454803 C8.12756861,9.70163259 13.8310506,4.08602525 14.2934385,3.60899154 C14.7704722,3.11731206 15.0068968,2.60471004 14.9985278,2.08583128 C14.9901588,1.57532152 14.7411807,1.08154978 14.2599625,0.623346365 Z M13.619733,2.95830083 C13.3602936,3.22610923 11.3203468,5.24304122 7.55847576,8.94842147 L7.26974484,9.23296789 C6.83874071,9.36687208 5.80516767,9.69744808 5.02475726,9.95061071 C5.27582764,9.11998622 5.57711209,8.11779698 5.71310854,7.64285553 C6.51653374,6.83943033 11.8329489,1.5313842 12.0358974,1.33262016 C12.0756502,1.29286736 12.4334255,0.947645591 12.8769832,0.947645591 C13.1280535,0.947645591 13.3686626,1.06271952 13.6155485,1.29705186 C13.908464,1.57950602 14.0611984,1.84940668 14.0653829,2.1025693 C14.0674752,2.36410094 13.9189252,2.65073962 13.619733,2.95830083 Z" id="Shape"></path>
            </g>
        </g>
    </g>
</svg>