<?xml version="1.0" encoding="UTF-8"?>
<svg width="18px" height="18px" viewBox="0 0 18 18" version="1.1" xmlns="http://www.w3.org/2000/svg" xmlns:xlink="http://www.w3.org/1999/xlink">
    <!-- Generator: Sketch 51 (57462) - http://www.bohemiancoding.com/sketch -->
    <title>首页 (1)</title>
    <desc>Created with Sketch.</desc>
    <defs></defs>
    <g id="Page-1" stroke="none" stroke-width="1" fill="none" fill-rule="evenodd">
        <g id="首页-多个产品展示" transform="translate(-15.000000, -1044.000000)" fill="#7F8388" fill-rule="nonzero">
            <g id="首页-(1)" transform="translate(15.000000, 1044.000000)">
                <path d="M17.4211591,7.79572727 L10.5977273,0.700181818 C10.1744545,0.260636364 9.607,0.0164545455 9,0.0164545455 C8.393,0.0164545455 7.82554545,0.258318182 7.40227273,0.700181818 L0.581159091,7.79572727 C-0.1235,8.52829545 -0.0327954545,9.16088636 0.0834772727,9.426 C0.167204545,9.61438636 0.446272727,10.1283409 1.25327273,10.1283409 L2.25329545,10.1283409 L2.25329545,15.5866364 C2.25329545,16.8262045 3.14402273,17.9936818 4.40918182,17.9936818 L7.31390909,17.9936818 L7.31390909,12.2167727 C7.31390909,11.5981364 7.22088636,11.2516364 7.85345455,11.2516364 L10.1488636,11.2516364 C10.7814545,11.2516364 10.6884091,11.5958409 10.6884091,12.2167727 L10.6884091,17.9936818 L13.5908182,17.9936818 C14.8559773,17.9936818 15.7467045,16.8262045 15.7467045,15.5866364 L15.7467045,10.1283409 L16.7467045,10.1283409 C17.5537273,10.1283409 17.8327955,9.61204545 17.9165227,9.426 C18.0327955,9.16088636 18.1235,8.52829545 17.4211591,7.79572727 Z M16.7467273,9.00504545 L14.6210909,9.00504545 L14.6210909,15.5866364 C14.6210909,16.2052727 14.2210909,16.8680682 13.5885,16.8680682 L11.8093864,16.8680682 L11.8093864,12.2167727 C11.8093864,10.9772273 11.4117045,10.1283636 10.1465455,10.1283636 L7.85113636,10.1283636 C6.58597727,10.1283636 6.18829545,10.9772273 6.18829545,12.2167727 L6.18829545,16.8704091 L4.40918182,16.8704091 C3.77659091,16.8704091 3.37659091,16.2075909 3.37659091,15.5889545 L3.37659091,9.00738636 L1.25095455,9.00738636 C1.23002273,9.00738636 1.21375,8.93063636 1.19745455,8.92829545 C1.237,8.86086364 1.30443182,8.68877273 1.41609091,8.5725 L8.2395,1.48159091 C8.44184091,1.26763636 8.73022727,1.13972727 9.00929545,1.14204545 C9.28838636,1.13972727 9.55815909,1.26997727 9.76281818,1.48159091 L16.5839318,8.57015909 C16.6955682,8.68645455 16.7630227,8.85856818 16.8002045,8.926 C16.78625,8.92831818 16.7676591,9.00506818 16.7467273,9.00506818 L16.7467273,9.00504545 Z" id="Shape"></path>
            </g>
        </g>
    </g>
</svg>