<?xml version="1.0" encoding="UTF-8"?>
<svg width="16px" height="16px" viewBox="0 0 16 16" version="1.1" xmlns="http://www.w3.org/2000/svg" xmlns:xlink="http://www.w3.org/1999/xlink">
    <!-- Generator: Sketch 51 (57462) - http://www.bohemiancoding.com/sketch -->
    <title>我的</title>
    <desc>Created with Sketch.</desc>
    <defs></defs>
    <g id="Page-1" stroke="none" stroke-width="1" fill="none" fill-rule="evenodd">
        <g id="首页-多个产品展示" transform="translate(-295.000000, -1045.000000)" fill="#4B4B4B" fill-rule="nonzero">
            <g id="我的" transform="translate(295.000000, 1045.000000)">
                <path d="M15.484972,8.06656027 L11.4888584,8.06656027 C11.2129987,8.06656027 10.9893442,7.84281537 10.9893442,7.56659027 C10.9893442,7.29042916 11.2129667,7.06658827 11.4888584,7.06658827 L15.484972,7.06658827 C15.7608317,7.06658827 15.9844862,7.29042916 15.9844862,7.56659027 C15.9844862,7.84284737 15.7608317,8.06656027 15.484972,8.06656027 Z M15.484972,3.999952 L11.4888584,3.999952 C11.2129987,3.999952 10.9893442,3.77607911 10.9893442,3.499982 C10.9893442,3.22378889 11.2129667,2.999884 11.4888584,2.999884 L15.484972,2.999884 C15.7608317,2.999884 15.9844862,3.22378889 15.9844862,3.499982 C15.9844862,3.77607911 15.7608317,3.999952 15.484972,3.999952 Z M10.9893442,11.000012 L10.9893442,12.999892 C10.9893442,14.6568266 9.64748126,16 7.99222709,16 L2.99708516,16 C1.34186296,16 0,14.6568586 0,12.999892 L0,11.000012 C0,9.68656675 0.848614665,8.58246633 2.0227048,8.1760647 C1.38326269,7.31231725 0.999060355,6.20610483 0.999060355,4.999956 C0.999060355,2.23850495 3.01179086,0 5.49465612,0 C7.97752139,0 9.99031583,2.23850495 9.99031583,4.999956 C9.99031583,6.20613683 9.60614547,7.31231725 8.96667139,8.1760647 C10.1407615,8.58246633 10.9893442,9.68656675 10.9893442,11.000012 Z M8.99128745,4.999956 C8.99128745,2.79082716 7.42580197,0.99994 5.49465612,0.99994 C3.56354224,0.99994 1.99808874,2.79082716 1.99808874,4.999956 C1.99808874,7.20914884 3.56354224,9.000004 5.49465612,9.000004 C7.42580197,9.000004 8.99128745,7.20914884 8.99128745,4.999956 Z M9.99031583,11.249997 C9.99031583,10.1869527 9.18437964,9.3014772 8.10427812,9.06614827 C7.36803415,9.65178261 6.46881271,9.999976 5.49465612,9.999976 C4.52049954,9.999976 3.62131006,9.65178261 2.88503413,9.06614827 C1.80496456,9.3014772 0.999028386,10.1869527 0.999028386,11.249997 L0.999028386,12.749971 C0.999028386,13.9926 2.09687266,14.999996 3.45117153,14.999996 L7.53810874,14.999996 C8.89237563,14.999996 9.99028385,13.992632 9.99028385,12.749971 L9.99028386,11.249997 L9.99031583,11.249997 Z M12.4878548,11.2000128 L15.48494,11.2000128 C15.7607997,11.2000128 15.9844542,11.4238217 15.9844542,11.6999828 C15.9844542,11.9761119 15.7607997,12.1999848 15.48494,12.1999848 L12.4878548,12.1999848 C12.2119951,12.1999848 11.9883406,11.9761119 11.9883406,11.6999828 C11.9883726,11.4238217 12.2119951,11.2000128 12.4878548,11.2000128 Z" id="Shape"></path>
            </g>
        </g>
    </g>
</svg>