<?xml version="1.0" encoding="UTF-8"?>
<svg width="13px" height="16px" viewBox="0 0 13 16" version="1.1" xmlns="http://www.w3.org/2000/svg" xmlns:xlink="http://www.w3.org/1999/xlink">
    <!-- Generator: Sketch 51 (57462) - http://www.bohemiancoding.com/sketch -->
    <title>订单</title>
    <desc>Created with Sketch.</desc>
    <defs></defs>
    <g id="Page-1" stroke="none" stroke-width="1" fill="none" fill-rule="evenodd">
        <g id="首页-多个产品展示" transform="translate(-186.000000, -1045.000000)" fill="#4B4B4B" fill-rule="nonzero">
            <g id="订单" transform="translate(186.000000, 1045.000000)">
                <path d="M5.27691948,1.01323831 L7.70808831,1.01323831 C7.96916883,1.01323831 8.18081558,0.789879733 8.18081558,0.514351893 C8.18081558,0.238824053 7.96916883,0.0154654788 7.70808831,0.0154654788 L5.27691948,0.0154654788 C5.01583896,0.0154654788 4.80419221,0.238824053 4.80419221,0.514351893 C4.80419221,0.789879733 5.01583896,1.01323831 5.27691948,1.01323831 Z M9.27153247,4.68153229 L3.46374026,4.68153229 C3.20265974,4.68153229 2.99101299,4.90489087 2.99101299,5.18041871 C2.99101299,5.45594655 3.20265974,5.67930512 3.46374026,5.67930512 L9.27153247,5.67930512 C9.53261299,5.67930512 9.74425974,5.45594655 9.74425974,5.18041871 C9.74425974,4.90489087 9.53261299,4.68153229 9.27153247,4.68153229 Z M9.27153247,7.48744766 L3.46374026,7.48744766 C3.20265974,7.48744766 2.99101299,7.71080624 2.99101299,7.98633408 C2.99101299,8.26186192 3.20265974,8.48522049 3.46374026,8.48522049 L9.27153247,8.48522049 C9.53261299,8.48522049 9.74425974,8.26186192 9.74425974,7.98633408 C9.74425974,7.71080624 9.53261299,7.48744766 9.27153247,7.48744766 Z M9.27153247,10.293363 L3.46374026,10.293363 C3.20265974,10.293363 2.99101299,10.5167216 2.99101299,10.7922494 C2.99101299,11.0677773 3.20265974,11.2911359 3.46374026,11.2911359 L9.27153247,11.2911359 C9.53261299,11.2911359 9.74425974,11.0677773 9.74425974,10.7922494 C9.74425974,10.5167394 9.53261299,10.293363 9.27153247,10.293363 Z" id="Shape"></path>
                <path d="M11.4657636,0.0217906459 L10.4434909,0.0217906459 L10.4434909,0.0218262806 L10.4422247,0.0217906459 C10.1811442,0.0217906459 9.9694974,0.24514922 9.9694974,0.52067706 C9.9694974,0.7962049 10.1811442,1.01956347 10.4422247,1.01956347 L10.4434909,1.01952784 L10.4434909,1.01956347 L11.4657636,1.01956347 C11.6174078,1.01956347 11.7611,1.08306459 11.8703675,1.19837862 C11.9796182,1.31367483 12.0397896,1.46531849 12.0397896,1.62535412 L12.0397896,14.3825924 C12.0397896,14.5426281 11.9796182,14.6942717 11.8703675,14.8095679 C11.7611169,14.9248641 11.6174247,14.9883831 11.4657636,14.9883831 L1.5199026,14.9883831 C1.36825844,14.9883831 1.22456623,14.924882 1.1152987,14.8095679 C1.00603117,14.6942539 0.945876623,14.5426281 0.945876623,14.3825924 L0.945876623,1.62535412 C0.945876623,1.46531849 1.00604805,1.31367483 1.1152987,1.19837862 C1.22454935,1.08306459 1.36824156,1.01956347 1.5199026,1.01956347 L2.54217532,1.01956347 L2.54217532,1.01952784 L2.54371169,1.01956347 C2.80479221,1.01956347 3.01643896,0.7962049 3.01643896,0.52067706 C3.01643896,0.24514922 2.80479221,0.0217906459 2.54371169,0.0217906459 L2.54217532,0.0218262806 L2.54217532,0.0217906459 L1.5199026,0.0217906459 C0.684188312,0.0217906459 0.000422077922,0.743394209 0.000422077922,1.62535412 L0.000422077922,14.3825924 C0.000422077922,15.2645523 0.684188312,15.9861559 1.5199026,15.9861559 L11.4657636,15.9861559 C12.3014779,15.9861559 12.9852442,15.2645523 12.9852442,14.3825924 L12.9852442,1.62535412 C12.9852442,0.743394209 12.3014779,0.0217906459 11.4657636,0.0217906459 Z" id="Shape"></path>
            </g>
        </g>
    </g>
</svg>