<?xml version="1.0" encoding="UTF-8"?>
<svg width="55px" height="55px" viewBox="0 0 55 55" version="1.1" xmlns="http://www.w3.org/2000/svg" xmlns:xlink="http://www.w3.org/1999/xlink">
    <!-- Generator: Sketch 51 (57462) - http://www.bohemiancoding.com/sketch -->
    <title>Group 7</title>
    <desc>Created with Sketch.</desc>
    <defs></defs>
    <g id="首页" stroke="none" stroke-width="1" fill="none" fill-rule="evenodd">
        <g id="好友分享给好友" transform="translate(-47.000000, -502.000000)">
            <g id="Group-7" transform="translate(47.000000, 502.000000)">
                <circle id="Oval-4" fill="#5BC80A" cx="27.5" cy="27.5" r="27.5"></circle>
                <g id="微信-2" transform="translate(14.000000, 16.000000)" fill="#FFFFFF" fill-rule="nonzero">
                    <path d="M26.994782,14.9123238 C26.994782,11.1366 23.6271843,8.06564626 19.3809944,7.91462857 C18.8928708,3.48445306 14.7443966,0.0107020408 9.71736067,0.0107020408 C4.34869888,0.0107020408 0.00494494382,3.88718776 0.00494494382,8.72006667 C0.00494494382,11.5895905 1.56678876,14.1068231 3.9582,15.7177619 C4.25104382,15.8688109 3.07966854,18.3859497 3.3725427,18.5370299 C3.86066629,18.8390966 5.81288764,16.6743429 6.34973258,16.8757102 C7.42348315,17.2281578 8.54601573,17.4294626 9.76620337,17.4294626 C10.3518607,17.4294626 10.937518,17.3791129 11.523236,17.2784136 C12.6457989,19.9466014 15.5741764,21.8596068 18.9905865,21.8596068 C19.9179,21.8596068 20.8452135,21.7085578 21.6749629,21.4568721 C21.918964,21.3561415 23.8224337,23.0679048 24.0664652,22.9672054 C24.5056854,22.8161565 23.2855584,20.8024517 23.676027,20.5507347 C25.6771213,19.2921497 26.9948427,17.2280639 26.9948427,14.9122612 L26.994782,14.9123238 Z M16.0621787,13.1502422 C15.6229584,13.1502422 15.2325202,12.7475075 15.2325202,12.2944544 C15.2325202,11.8414014 15.5742067,11.4386667 16.0621787,11.4386667 C16.5013989,11.4386667 16.8918371,11.8414014 16.8918371,12.2944544 C16.8918371,12.7475075 16.5501506,13.1502422 16.0621787,13.1502422 Z M11.0351124,14.9123238 C11.0351124,15.1136599 11.0351124,15.3653769 11.0839247,15.6171252 C10.6447045,15.6674748 10.2053933,15.7178558 9.76617303,15.7178558 C8.64361011,15.7178558 7.56988989,15.5165197 6.59379438,15.1641034 C6.49613933,15.1137537 6.15457416,15.0130544 5.95932472,15.1641034 C5.52010449,15.4661701 4.98325955,16.1709088 4.98325955,16.1709088 C4.98325955,16.1709088 5.17844831,15.6674122 5.27610337,14.9627048 C5.32491573,14.6606381 4.83688315,14.4089524 4.73925843,14.3586027 C2.93344382,13.1000177 1.76206854,10.9352639 1.76206854,8.77044762 C1.76206854,4.8939619 5.32488539,1.77275238 9.76623371,1.77275238 C13.9147989,1.77275238 17.282427,4.4912585 17.7216472,8.01526531 C13.9147685,8.56901769 11.0352034,11.4386041 11.0352034,14.9122925 L11.0351124,14.9123238 Z M21.1379966,13.1502422 C20.6987764,13.1502422 20.3083382,12.7475075 20.3083382,12.2944544 C20.3083382,11.8414014 20.6500247,11.4386667 21.1379966,11.4386667 C21.5772169,11.4386667 21.9676551,11.8414014 21.9676551,12.2944544 C21.9676551,12.7475075 21.6259685,13.1502422 21.1379966,13.1502422 Z" id="Shape"></path>
                    <path d="M13.1338315,6.95807891 C13.8171135,6.95807891 14.4027708,6.35397687 14.4027708,5.64917551 C14.4027708,4.94437415 13.8171135,4.34027211 13.1338315,4.34027211 C12.4505494,4.34027211 11.8648921,4.94437415 11.8648921,5.64917551 C11.8648921,6.40432653 12.4505494,6.95807891 13.1338315,6.95807891 Z M6.39854494,6.95807891 C7.08182697,6.95807891 7.66748427,6.35397687 7.66748427,5.64917551 C7.66748427,4.94437415 7.08182697,4.34027211 6.39854494,4.34027211 C5.71526292,4.34027211 5.12960562,4.94437415 5.12960562,5.64917551 C5.12960562,6.40432653 5.66645056,6.95807891 6.39854494,6.95807891 Z" id="Shape"></path>
                </g>
            </g>
        </g>
    </g>
</svg>