<?xml version="1.0" encoding="UTF-8"?>
<svg width="23px" height="20px" viewBox="0 0 23 20" version="1.1" xmlns="http://www.w3.org/2000/svg" xmlns:xlink="http://www.w3.org/1999/xlink">
    <!-- Generator: Sketch 51 (57462) - http://www.bohemiancoding.com/sketch -->
    <title>微信-2</title>
    <desc>Created with Sketch.</desc>
    <defs></defs>
    <g id="订单" stroke="none" stroke-width="1" fill="none" fill-rule="evenodd">
        <g id="确认订单页-已选择地址" transform="translate(-145.000000, -562.000000)" fill="#FFFFFF" fill-rule="nonzero">
            <g id="微信-2" transform="translate(145.000000, 562.000000)">
                <path d="M22.9955551,12.7030907 C22.9955551,9.48673333 20.1268607,6.8707357 16.509736,6.74209101 C16.093927,2.96823779 12.5600416,0.00911655329 8.27775169,0.00911655329 C3.70444719,0.00911655329 0.00421235955,3.31130809 0.00421235955,7.42820494 C0.00421235955,9.87261411 1.33467191,12.0169234 3.3718,13.3892046 C3.62125955,13.5178759 2.62342135,15.6621053 2.87290674,15.7908033 C3.28871573,16.0481193 4.9517191,14.2040698 5.40903146,14.375605 C6.32370787,14.6758381 7.27993933,14.84732 8.31935843,14.84732 C8.81825169,14.84732 9.31714494,14.8044295 9.81608989,14.7186486 C10.7723472,16.9915493 13.266891,18.6211465 16.1771663,18.6211465 C16.9671,18.6211465 17.7570337,18.4924752 18.4638573,18.2780762 C18.6717101,18.1922687 20.2931843,19.6504374 20.5010629,19.5646565 C20.8752135,19.4359851 19.8358461,17.720607 20.1684674,17.5061814 C21.8731034,16.4340534 22.9956067,14.6757582 22.9956067,12.7030373 L22.9955551,12.7030907 Z M13.6825966,11.2020582 C13.3084461,11.2020582 12.9758506,10.8589879 12.9758506,10.4730538 C12.9758506,10.0871197 13.2669169,9.74404938 13.6825966,9.74404938 C14.0567472,9.74404938 14.3893427,10.0871197 14.3893427,10.4730538 C14.3893427,10.8589879 14.0982764,11.2020582 13.6825966,11.2020582 Z M9.4002809,12.7030907 C9.4002809,12.8745991 9.4002809,13.0890247 9.4418618,13.303477 C9.06771124,13.3463674 8.69348315,13.3892846 8.31933258,13.3892846 C7.36307528,13.3892846 6.44842472,13.2177761 5.61693596,12.9175696 C5.53374831,12.8746791 5.24278539,12.7888982 5.0764618,12.9175696 C4.70231124,13.1748856 4.24499888,13.7752186 4.24499888,13.7752186 C4.24499888,13.7752186 4.41127079,13.3463141 4.49445843,12.7460078 C4.53603933,12.4886917 4.12030787,12.2742928 4.03714607,12.2314023 C2.49885955,11.1592743 1.50102135,9.31522484 1.50102135,7.47112205 C1.50102135,4.16893051 4.53601348,1.5101224 8.31938427,1.5101224 C11.8533472,1.5101224 14.7220674,3.82588687 15.096218,6.82781859 C11.8533213,7.29953359 9.40035843,9.74399607 9.40035843,12.703064 L9.4002809,12.7030907 Z M18.0064416,11.2020582 C17.632291,11.2020582 17.2996955,10.8589879 17.2996955,10.4730538 C17.2996955,10.0871197 17.5907618,9.74404938 18.0064416,9.74404938 C18.3805921,9.74404938 18.7131876,10.0871197 18.7131876,10.4730538 C18.7131876,10.8589879 18.4221213,11.2020582 18.0064416,11.2020582 Z" id="Shape"></path>
                <path d="M11.1880787,5.92725241 C11.7701337,5.92725241 12.269027,5.41264696 12.269027,4.81226062 C12.269027,4.21187428 11.7701337,3.69726883 11.1880787,3.69726883 C10.6060236,3.69726883 10.1071303,4.21187428 10.1071303,4.81226062 C10.1071303,5.45553741 10.6060236,5.92725241 11.1880787,5.92725241 Z M5.45061236,5.92725241 C6.03266742,5.92725241 6.53156067,5.41264696 6.53156067,4.81226062 C6.53156067,4.21187428 6.03266742,3.69726883 5.45061236,3.69726883 C4.8685573,3.69726883 4.36966404,4.21187428 4.36966404,4.81226062 C4.36966404,5.45553741 4.8269764,5.92725241 5.45061236,5.92725241 Z" id="Shape"></path>
            </g>
        </g>
    </g>
</svg>